FFmpeg version SVN-r25716, Copyright (c) 2000-2010 the FFmpeg developers  built on Nov 10 2010 12:23:18 with gcc 4.1.2 20080704 (Red Hat 4.1.2-48)  configuration: --enable-libmp3lame --enable-shared --disable-mmx --arch=x86_64  libavutil     50.33. 0 / 50.33. 0  libavcore      0.12. 1 /  0.12. 1  libavcodec    52.94. 4 / 52.94. 4  libavformat   52.84. 0 / 52.84. 0  libavdevice   52. 2. 2 / 52. 2. 2  libavfilter    1.59. 0 /  1.59. 0  libswscale     0.12. 0 /  0.12. 0Input #0, avi, from '/RAID10/data/converted_video_files/47501.avi':  Duration: 00:00:01.43, start: 0.000000, bitrate: 283004 kb/s    Stream #0.0: Video: msvideo1, rgb555le, 1024x1024, 30 tbr, 30 tbn, 30 tbc[buffer @ 0xd59ab40] w:1024 h:1024 pixfmt:rgb555le[ffsink @ 0xd5d4ec0] auto-inserting filter 'auto-inserted scaler 0' between the filter 'src' and the filter 'out'[scale @ 0xd5d51e0] w:1024 h:1024 fmt:rgb555le -> w:1024 h:1024 fmt:yuv420p flags:0x4Output #0, flv, to '/RAID10/data/converted_video_files/47501.flv':  Metadata:    encoder         : Lavf52.84.0    Stream #0.0: Video: flv, yuv420p, 1024x1024, q=2-31, 600 kb/s, 1k tbn, 24 tbcStream mapping:  Stream #0.0 -> #0.0Press [q] to stop encodingframe=    4 fps=  0 q=2.2 size=     818kB time=0.17 bitrate=40129.6kbits/s dup=0 drop=1    frame=   10 fps=  8 q=18.3 size=     945kB time=0.42 bitrate=18564.9kbits/s dup=0 drop=2    frame=   16 fps=  9 q=31.0 size=     979kB time=0.67 bitrate=12019.4kbits/s dup=0 drop=4    frame=   22 fps= 10 q=31.0 size=     985kB time=0.92 bitrate=8799.7kbits/s dup=0 drop=5    frame=   28 fps= 10 q=31.0 size=    1017kB time=1.17 bitrate=7138.6kbits/s dup=0 drop=6    frame=   35 fps= 11 q=31.0 Lsize=    1025kB time=1.46 bitrate=5758.5kbits/s dup=0 drop=8    video:1024kB audio:0kB global headers:0kB muxing overhead 0.073423%